<?xml version="1.0" standalone="no"?>
<!DOCTYPE svg PUBLIC "-//W3C//DTD SVG 20010904//EN"
 "http://www.w3.org/TR/2001/REC-SVG-20010904/DTD/svg10.dtd">
<svg version="1.0" xmlns="http://www.w3.org/2000/svg"
 width="160.000000pt" height="160.000000pt" viewBox="0 0 160.000000 160.000000"
 preserveAspectRatio="xMidYMid meet">

<g transform="translate(0.000000,160.000000) scale(0.100000,-0.100000)"
fill="#000000" stroke="none">
<path d="M0 800 l0 -800 800 0 800 0 0 800 0 800 -800 0 -800 0 0 -800z m709
511 c58 -91 124 -90 182 0 30 47 33 49 53 36 29 -20 65 -93 75 -153 4 -29 19
-66 33 -85 68 -90 81 -188 38 -273 -41 -82 -172 -211 -193 -190 -2 3 -22 -6
-42 -21 -47 -31 -61 -31 -107 0 -20 14 -47 25 -58 25 -36 0 -136 105 -175 183
-32 63 -34 75 -29 126 7 60 21 92 64 156 17 24 30 60 34 89 8 65 57 148 92
156 1 0 16 -22 33 -49z m-474 -765 c18 -13 18 -16 2 -92 -22 -98 -42 -129 -87
-129 -51 0 -57 20 -35 115 24 106 67 145 120 106z m140 -2 c11 -12 14 -25 9
-48 -10 -49 -23 -67 -59 -82 -27 -11 -34 -20 -40 -54 -6 -34 -11 -40 -31 -40
-13 0 -24 2 -24 4 0 11 51 220 56 228 9 14 72 9 89 -8z m126 6 c42 -23 11
-126 -41 -137 -25 -4 -31 -12 -37 -47 -7 -32 -14 -42 -31 -44 -27 -4 -27 0 -2
108 11 47 22 95 25 108 4 17 12 22 36 22 17 0 39 -5 50 -10z m144 -4 c18 -13
18 -16 2 -92 -22 -98 -42 -129 -87 -129 -50 0 -56 19 -35 110 24 108 68 149
120 111z m143 2 c16 -16 15 -47 -1 -79 -8 -14 -17 -49 -20 -77 -7 -63 -12 -72
-38 -72 -21 0 -24 18 -10 67 5 18 6 35 2 38 -4 2 -13 -20 -20 -50 -11 -49 -15
-55 -37 -55 -19 0 -24 4 -20 18 2 9 14 60 26 112 12 52 24 98 26 102 8 13 79
9 92 -4z m132 -12 c0 -14 -7 -26 -18 -28 -13 -4 -22 -27 -36 -96 -17 -85 -21
-92 -42 -92 -13 0 -24 4 -24 9 0 10 27 134 36 163 3 9 -1 18 -9 20 -11 2 -12
9 -6 26 7 18 16 22 54 22 41 0 45 -2 45 -24z m70 20 c0 -3 -9 -42 -20 -88 -22
-93 -25 -117 -10 -102 5 5 18 47 29 93 22 90 31 107 54 98 13 -5 12 -19 -8
-101 -24 -105 -44 -136 -85 -136 -49 0 -55 20 -35 113 24 111 31 127 55 127
11 0 20 -2 20 -4z m141 -38 l1 -43 8 33 c9 40 24 57 43 49 11 -4 9 -25 -12
-121 -24 -105 -28 -116 -48 -116 -18 0 -22 6 -25 43 l-4 42 -8 -42 c-7 -36
-12 -43 -32 -43 -29 0 -29 -8 0 117 27 116 30 123 57 123 16 0 19 -7 20 -42z
m133 26 c-1 -5 -12 -57 -24 -116 -22 -99 -26 -108 -47 -108 -13 0 -23 2 -23 5
0 13 51 218 56 227 7 11 39 5 38 -8z m118 10 c10 -9 -4 -44 -17 -44 -9 0 -22
-34 -36 -95 -20 -87 -23 -95 -45 -95 -13 0 -24 2 -24 4 0 3 9 44 21 92 14 60
17 90 10 92 -12 4 -15 35 -4 45 8 8 87 9 95 1z m60 -34 l-2 -35 17 35 c19 37
53 53 53 25 0 -8 -13 -42 -30 -74 -16 -32 -34 -79 -41 -105 -9 -38 -15 -46
-34 -46 -21 0 -22 3 -14 38 5 20 9 74 9 120 0 81 1 83 23 80 19 -3 22 -8 19
-38z m-897 -269 c-6 -5 -25 10 -25 20 0 5 6 4 14 -3 8 -7 12 -15 11 -17z m55
20 c0 -5 -7 -11 -14 -14 -10 -4 -13 -1 -9 9 6 15 23 19 23 5z m57 -13 c-3 -8
-6 -5 -6 6 -1 11 2 17 5 13 3 -3 4 -12 1 -19z m177 7 c3 -8 1 -15 -4 -15 -6 0
-10 7 -10 15 0 8 2 15 4 15 2 0 6 -7 10 -15z m33 -7 c-3 -8 -6 -5 -6 6 -1 11
2 17 5 13 3 -3 4 -12 1 -19z m63 12 c0 -5 -5 -10 -11 -10 -5 0 -7 5 -4 10 3 6
8 10 11 10 2 0 4 -4 4 -10z m127 -12 c-3 -8 -6 -5 -6 6 -1 11 2 17 5 13 3 -3
4 -12 1 -19z m-77 -2 c-7 -7 -13 -7 -20 0 -6 6 -3 10 10 10 13 0 16 -4 10 -10z"/>
<path d="M647 1312 c-22 -24 -43 -78 -52 -132 -4 -25 -17 -58 -30 -75 -12 -16
-29 -43 -37 -60 -18 -35 -35 -159 -19 -135 9 12 11 11 11 -8 0 -13 4 -20 10
-17 6 3 10 -3 10 -14 0 -12 5 -18 13 -15 9 3 12 -6 9 -33 -3 -32 2 -45 33 -81
20 -23 45 -47 55 -52 16 -9 18 -7 15 12 -4 19 1 17 33 -14 20 -20 52 -45 71
-56 l34 -21 46 31 c25 17 56 42 68 57 16 18 23 21 23 10 0 -8 -6 -21 -12 -29
-7 -7 1 -3 19 9 56 38 93 91 93 134 0 23 4 36 10 32 6 -3 10 3 10 15 0 12 5
18 10 15 6 -3 10 4 10 17 0 18 2 20 10 8 8 -12 10 -11 10 6 0 57 -22 129 -54
173 -20 27 -37 65 -41 91 -4 25 -14 61 -22 80 -23 56 -63 91 -63 55 0 -8 -4
-15 -8 -15 -5 0 -14 -11 -21 -24 -33 -62 -166 -59 -186 4 -3 11 -11 20 -16 20
-5 0 -9 7 -9 15 0 20 -13 19 -33 -3z m69 -99 c31 -31 31 -32 13 -49 -23 -21
-24 -33 -3 -63 13 -18 18 -20 25 -10 6 10 9 3 9 -18 0 -36 -2 -38 -32 -22 -11
6 -31 8 -45 4 -24 -6 -25 -7 -8 -25 10 -11 31 -20 46 -20 21 0 28 -5 31 -22 3
-21 5 -21 25 11 l21 33 18 -27 c15 -22 19 -24 26 -11 5 9 22 16 37 16 31 0 57
23 46 41 -7 11 -33 9 -67 -6 -15 -6 -18 -2 -18 26 0 23 3 30 9 20 7 -10 12 -8
25 10 23 33 20 44 -16 74 -18 14 -26 23 -18 20 10 -3 34 12 65 42 l49 47 18
-40 c14 -29 17 -53 14 -96 -5 -51 -3 -57 18 -71 26 -17 42 -65 28 -79 -5 -5
-7 -30 -4 -55 4 -41 2 -49 -20 -67 -13 -12 -34 -37 -46 -57 -21 -34 -69 -76
-77 -67 -2 2 2 22 10 43 8 22 14 51 15 65 0 14 12 43 27 64 l26 40 -35 -22
c-26 -16 -37 -19 -46 -10 -9 9 -9 4 0 -20 11 -28 10 -33 -15 -56 -66 -61 -202
8 -145 74 11 13 11 13 -1 3 -12 -10 -21 -8 -49 9 l-35 22 26 -40 c15 -21 27
-51 27 -65 0 -15 7 -45 15 -68 8 -22 12 -41 9 -41 -16 0 -57 37 -76 69 -12 20
-33 45 -46 57 -23 19 -25 26 -19 71 3 29 1 55 -5 61 -11 11 6 50 31 69 12 8
16 29 16 80 1 37 6 81 13 97 12 28 13 28 35 10 12 -10 36 -33 53 -51z m85 -62
c-8 -5 -12 -18 -8 -30 6 -24 -11 -29 -19 -6 -9 22 3 45 23 45 14 0 15 -2 4 -9z
m-76 -111 c3 -5 -3 -10 -14 -10 -11 0 -23 5 -26 10 -3 6 3 10 14 10 11 0 23
-4 26 -10z m190 0 c-3 -5 -15 -10 -26 -10 -11 0 -17 5 -14 10 3 6 15 10 26 10
11 0 17 -4 14 -10z m-68 -234 c-6 -18 -82 -19 -97 -1 -12 14 -7 15 44 14 36
-1 55 -6 53 -13z m-7 -95 c0 -10 -9 -29 -20 -42 l-20 -24 -20 24 c-11 13 -20
32 -20 42 0 15 7 19 40 19 33 0 40 -4 40 -19z m-78 -41 c17 -29 17 -30 -2 -20
-11 6 -24 19 -30 30 -18 34 13 24 32 -10z m103 6 c-25 -37 -47 -42 -27 -5 9
16 23 29 30 29 9 0 8 -6 -3 -24z"/>
<path d="M773 903 c-22 -8 -14 -32 13 -39 33 -8 68 21 44 36 -16 10 -37 12
-57 3z"/>
<path d="M171 473 c-5 -21 -13 -56 -17 -77 -10 -59 12 -36 26 26 6 29 14 61
17 71 2 9 0 17 -6 17 -6 0 -15 -17 -20 -37z"/>
<path d="M315 489 c-6 -19 0 -38 9 -28 10 12 16 49 7 49 -5 0 -13 -9 -16 -21z"/>
<path d="M458 504 c-5 -4 -8 -16 -8 -28 0 -14 3 -17 11 -9 6 6 9 19 7 28 -1 9
-6 13 -10 9z"/>
<path d="M584 483 c-3 -16 -10 -44 -15 -63 -12 -46 -12 -67 0 -54 8 8 41 119
41 138 0 3 -4 6 -10 6 -5 0 -12 -12 -16 -27z"/>
<path d="M727 489 c-3 -13 -1 -19 6 -16 15 5 22 37 9 37 -5 0 -12 -9 -15 -21z"/>
</g>
</svg>
